<?xml version="1.0" encoding="UTF-8"?>
<!DOCTYPE svg PUBLIC "-//W3C//DTD SVG 1.1//EN" "http://www.w3.org/Graphics/SVG/1.1/DTD/svg11.dtd">
<svg xmlns="http://www.w3.org/2000/svg" version="1.1" width="2600px" height="1463px" style="shape-rendering:geometricPrecision; text-rendering:geometricPrecision; image-rendering:optimizeQuality; fill-rule:evenodd; clip-rule:evenodd" xmlns:xlink="http://www.w3.org/1999/xlink">
<g><path style="opacity:0.979" fill="#0560a8" d="M 172.5,520.5 C 196.833,520.5 221.167,520.5 245.5,520.5C 234.109,629.851 222.609,739.185 211,848.5C 209.989,849.337 208.822,849.67 207.5,849.5C 196.162,739.781 184.495,630.114 172.5,520.5 Z"/></g>
<g><path style="opacity:1" fill="#e64c22" d="M 155.5,916.5 C 155.47,917.497 155.97,918.164 157,918.5C 160.145,919.411 163.312,920.245 166.5,921C 164,921.833 163.833,923 166,924.5C 169.11,923.327 169.277,923.827 166.5,926C 165.939,927.566 166.606,928.899 168.5,930C 167.424,932.131 166.757,934.465 166.5,937C 164.299,937.825 162.466,937.325 161,935.5C 159.301,936.406 157.467,936.739 155.5,936.5C 114.4,931.987 79.8997,914.653 52,884.5C 37.2912,866.165 28.7912,845.498 26.5,822.5C 26.7709,820.62 26.1042,819.287 24.5,818.5C 22.7236,789.19 27.8903,760.857 40,733.5C 51.7676,709.299 62.4342,684.633 72,659.5C 78.9163,638.602 79.9163,617.935 75,597.5C 71.1606,584.974 64.6606,574.141 55.5,565C 55.7247,563.379 56.558,562.212 58,561.5C 103.783,574.91 127.95,605.41 130.5,653C 130.66,666.87 128.493,680.37 124,693.5C 116.22,714.393 107.887,735.059 99,755.5C 87.6255,782.122 83.6255,809.789 87,838.5C 94.761,877.76 117.594,903.76 155.5,916.5 Z"/></g>
<g><path style="opacity:0.969" fill="#0560a8" d="M 1072.5,925.5 C 1024.38,941.495 981.05,933.995 942.5,903C 904.132,865.387 890.965,820.22 903,767.5C 919.322,712.581 955.822,680.748 1012.5,672C 1064.01,667.807 1104.51,686.641 1134,728.5C 1152.72,760.323 1158.06,794.323 1150,830.5C 1140.38,875.604 1114.54,907.27 1072.5,925.5 Z M 1010.5,684.5 C 1036.77,682.864 1058.6,691.864 1076,711.5C 1098.6,740.117 1109.76,772.784 1109.5,809.5C 1110.45,839.057 1103.28,866.39 1088,891.5C 1066.34,918.826 1038.84,926.992 1005.5,916C 987.16,907.327 972.994,894.161 963,876.5C 939.502,831.852 935.502,785.519 951,737.5C 960.754,708.233 980.587,690.566 1010.5,684.5 Z"/></g>
<g><path style="opacity:0.957" fill="#0660a8" d="M 1549.5,671.5 C 1550.82,671.33 1551.99,671.663 1553,672.5C 1582.2,750.423 1611.2,828.423 1640,906.5C 1640.77,907.849 1641.94,908.682 1643.5,909C 1651.77,911.482 1660.11,913.648 1668.5,915.5C 1668.5,919.167 1668.5,922.833 1668.5,926.5C 1633.17,926.5 1597.83,926.5 1562.5,926.5C 1562.5,922.833 1562.5,919.167 1562.5,915.5C 1574.19,913.326 1585.86,910.993 1597.5,908.5C 1589.71,886.459 1581.71,864.459 1573.5,842.5C 1542.17,841.5 1510.84,841.167 1479.5,841.5C 1472.08,863.685 1464.08,885.685 1455.5,907.5C 1467.05,910.676 1478.71,913.343 1490.5,915.5C 1490.5,919.167 1490.5,922.833 1490.5,926.5C 1463.5,926.5 1436.5,926.5 1409.5,926.5C 1409.21,922.894 1409.54,919.394 1410.5,916C 1418.94,913.298 1427.44,910.798 1436,908.5C 1465.7,832.255 1494.53,755.588 1522.5,678.5C 1531.81,676.924 1540.81,674.591 1549.5,671.5 Z M 1526.5,715.5 C 1540.2,750.428 1553.54,785.595 1566.5,821C 1540.16,821.833 1513.83,821.667 1487.5,820.5C 1500.7,785.554 1513.7,750.554 1526.5,715.5 Z"/></g>
<g><path style="opacity:0.961" fill="#0660a8" d="M 2483.5,671.5 C 2508.02,670.218 2531.86,673.551 2555,681.5C 2557.55,700.822 2559.38,719.988 2560.5,739C 2557.57,739.777 2554.74,739.61 2552,738.5C 2545.23,723.136 2538.07,707.97 2530.5,693C 2511.72,683.415 2492.38,682.082 2472.5,689C 2454.6,697.96 2447.1,712.46 2450,732.5C 2452.31,743.29 2457.81,752.123 2466.5,759C 2471.33,762.581 2476.33,765.915 2481.5,769C 2504.65,780.401 2526.98,793.068 2548.5,807C 2574.68,829.567 2581.85,857.067 2570,889.5C 2558.77,909.721 2541.94,922.888 2519.5,929C 2492.93,934.653 2466.27,934.987 2439.5,930C 2430.39,928.348 2421.55,925.848 2413,922.5C 2410.98,900.804 2408.82,879.137 2406.5,857.5C 2409.57,857.183 2412.57,857.516 2415.5,858.5C 2422.83,875.5 2430.17,892.5 2437.5,909.5C 2457.72,920.48 2479.05,923.313 2501.5,918C 2532.02,907.455 2542.86,886.622 2534,855.5C 2527.5,843.667 2518.33,834.5 2506.5,828C 2484.36,817.77 2463.36,805.77 2443.5,792C 2412.52,766.287 2406.69,735.787 2426,700.5C 2435.46,688.391 2447.62,680.225 2462.5,676C 2469.57,674.155 2476.57,672.655 2483.5,671.5 Z"/></g>
<g><path style="opacity:0.963" fill="#0660a8" d="M 1716.5,678.5 C 1753.65,678.045 1790.98,678.545 1828.5,680C 1848.9,682.235 1866.73,690.069 1882,703.5C 1897.75,722.66 1901.42,743.994 1893,767.5C 1884.93,783.571 1872.43,794.737 1855.5,801C 1850.9,802.867 1846.23,804.534 1841.5,806C 1863.46,839.415 1885.29,872.915 1907,906.5C 1917.68,910.057 1928.51,913.224 1939.5,916C 1940.46,919.394 1940.79,922.894 1940.5,926.5C 1918.83,926.667 1897.16,926.5 1875.5,926C 1851.7,888.854 1827.86,851.687 1804,814.5C 1794.58,813.515 1785.08,813.182 1775.5,813.5C 1775.5,845.167 1775.5,876.833 1775.5,908.5C 1786.47,910.991 1797.47,913.325 1808.5,915.5C 1808.5,919.167 1808.5,922.833 1808.5,926.5C 1774.5,926.5 1740.5,926.5 1706.5,926.5C 1706.21,922.894 1706.54,919.394 1707.5,916C 1716.17,913.499 1724.84,910.999 1733.5,908.5C 1734.83,837.833 1734.83,767.167 1733.5,696.5C 1732.91,696.709 1732.41,697.043 1732,697.5C 1723.87,693.839 1715.37,691.173 1706.5,689.5C 1706.5,686.167 1706.5,682.833 1706.5,679.5C 1710.04,679.813 1713.38,679.479 1716.5,678.5 Z M 1775.5,693.5 C 1796.33,692.523 1816,696.023 1834.5,704C 1849.98,713.628 1857.32,727.628 1856.5,746C 1856.3,768.726 1845.63,784.393 1824.5,793C 1808.61,798.323 1792.28,800.49 1775.5,799.5C 1775.5,764.167 1775.5,728.833 1775.5,693.5 Z"/></g>
<g><path style="opacity:0.963" fill="#0760a8" d="M 608.5,678.5 C 628.715,678.736 648.882,678.736 669,678.5C 669.75,679.126 670.584,679.626 671.5,680C 716.667,739.167 761.833,798.333 807,857.5C 807.5,803.834 807.667,750.168 807.5,696.5C 796.713,694.575 786.046,692.075 775.5,689C 774.549,685.943 774.216,682.777 774.5,679.5C 800.167,679.5 825.833,679.5 851.5,679.5C 851.5,682.833 851.5,686.167 851.5,689.5C 842.55,692.039 833.55,694.373 824.5,696.5C 824.333,764.167 824.5,831.834 825,899.5C 825.327,909.85 825.827,920.183 826.5,930.5C 822.116,930.826 817.783,930.492 813.5,929.5C 760.08,860.612 706.913,791.612 654,722.5C 653.5,784.499 653.333,846.499 653.5,908.5C 664.23,910.682 674.897,913.182 685.5,916C 686.456,919.394 686.789,922.894 686.5,926.5C 660.926,926.828 635.426,926.495 610,925.5C 609.216,922.24 609.383,919.073 610.5,916C 618.809,913.397 627.142,910.897 635.5,908.5C 636.168,840.266 636.835,772.099 637.5,704C 628.693,695.93 618.359,691.097 606.5,689.5C 606.036,685.498 606.702,681.831 608.5,678.5 Z"/></g>
<g><path style="opacity:0.965" fill="#0660a8" d="M 1178.5,678.5 C 1211.83,678.5 1245.17,678.5 1278.5,678.5C 1278.5,682.167 1278.5,685.833 1278.5,689.5C 1268.15,691.837 1257.82,694.337 1247.5,697C 1270.13,758.431 1292.63,819.931 1315,881.5C 1338.08,820.019 1360.58,758.352 1382.5,696.5C 1372.5,694.167 1362.5,691.833 1352.5,689.5C 1352.5,685.833 1352.5,682.167 1352.5,678.5C 1376.84,678.333 1401.17,678.5 1425.5,679C 1426.46,682.394 1426.79,685.894 1426.5,689.5C 1417.64,691.563 1408.98,694.23 1400.5,697.5C 1372.33,774.5 1344.17,851.5 1316,928.5C 1312.09,929.796 1307.92,930.463 1303.5,930.5C 1299.08,930.463 1294.91,929.796 1291,928.5C 1262.03,851.454 1232.86,774.12 1203.5,696.5C 1202.91,696.709 1202.41,697.043 1202,697.5C 1194.55,693.842 1186.72,691.175 1178.5,689.5C 1178.5,685.833 1178.5,682.167 1178.5,678.5 Z"/></g>
<g><path style="opacity:0.948" fill="#0460a8" d="M 1972.5,679.5 C 2038.5,679.5 2104.5,679.5 2170.5,679.5C 2172.24,697.827 2173.91,716.161 2175.5,734.5C 2172.43,734.817 2169.43,734.484 2166.5,733.5C 2160.43,720.176 2154.43,707.176 2148.5,694.5C 2129.51,693.5 2110.51,693.167 2091.5,693.5C 2091.5,765.167 2091.5,836.833 2091.5,908.5C 2102.83,910.834 2114.17,913.167 2125.5,915.5C 2125.5,919.167 2125.5,922.833 2125.5,926.5C 2089.5,926.667 2053.5,926.5 2017.5,926C 2016.17,922.667 2016.17,919.333 2017.5,916C 2028.78,913.18 2040.11,910.68 2051.5,908.5C 2051.5,836.833 2051.5,765.167 2051.5,693.5C 2032.5,693.333 2013.5,693.5 1994.5,694C 1987.93,706.971 1981.76,720.137 1976,733.5C 1972.94,734.451 1969.78,734.784 1966.5,734.5C 1968.16,716.292 1970.16,697.959 1972.5,679.5 Z"/></g>
<g><path style="opacity:0.961" fill="#0460a8" d="M 2234.5,678.5 C 2269.68,679.684 2304.85,679.684 2340,678.5C 2342.28,681.699 2343.11,685.365 2342.5,689.5C 2331.17,691.833 2319.83,694.167 2308.5,696.5C 2308.5,767.167 2308.5,837.833 2308.5,908.5C 2319.53,910.806 2330.53,913.306 2341.5,916C 2342.46,919.394 2342.79,922.894 2342.5,926.5C 2306.5,926.667 2270.5,926.5 2234.5,926C 2233.17,922.667 2233.17,919.333 2234.5,916C 2245.78,913.18 2257.11,910.68 2268.5,908.5C 2268.67,838.166 2268.5,767.833 2268,697.5C 2256.65,694.287 2245.15,691.62 2233.5,689.5C 2233.24,685.731 2233.58,682.064 2234.5,678.5 Z"/></g>
<g><path style="opacity:1" fill="#eb981f" d="M 329.5,720.5 C 356.797,731.464 376.131,750.464 387.5,777.5C 389.535,785.253 391.535,792.919 393.5,800.5C 395.271,815.784 393.938,830.784 389.5,845.5C 389.624,846.107 389.957,846.44 390.5,846.5C 390.167,847.833 389.833,849.167 389.5,850.5C 388.624,850.369 387.957,850.702 387.5,851.5C 385.536,855.754 383.869,860.088 382.5,864.5C 373.523,880.981 361.19,894.481 345.5,905C 328.851,916.158 310.851,924.325 291.5,929.5C 282.47,931.341 273.47,933.341 264.5,935.5C 263.033,935.277 261.533,934.944 260,934.5C 259.667,935.167 259.333,935.833 259,936.5C 257.732,936.384 256.398,936.051 255,935.5C 254.333,936.167 253.667,936.833 253,937.5C 252.259,936.359 251.425,936.359 250.5,937.5C 248.017,932.704 245.35,928.038 242.5,923.5C 243.689,922.571 245.022,922.238 246.5,922.5C 246.413,925.598 246.913,925.932 248,923.5C 248.333,924.167 248.667,924.833 249,925.5C 250.553,921.701 251.886,921.701 253,925.5C 254.118,923.235 254.951,920.901 255.5,918.5C 259.837,917.611 263.837,915.944 267.5,913.5C 296.004,899.075 316.337,877.075 328.5,847.5C 335.036,830.864 337.203,813.531 335,795.5C 334.593,792.318 334.093,789.151 333.5,786C 333.316,784.624 332.649,783.791 331.5,783.5C 325.11,753.689 309.11,730.689 283.5,714.5C 282.878,712.665 281.544,711.498 279.5,711C 296.633,710.568 313.133,714.068 329,721.5C 329.399,721.272 329.565,720.938 329.5,720.5 Z"/></g>
<g><path style="opacity:0.515" fill="#d86f34" d="M 329.5,720.5 C 329.565,720.938 329.399,721.272 329,721.5C 313.133,714.068 296.633,710.568 279.5,711C 281.544,711.498 282.878,712.665 283.5,714.5C 280.462,713.958 278.962,712.291 279,709.5C 296.666,709.291 313.499,712.958 329.5,720.5 Z"/></g>
<g><path style="opacity:0.397" fill="#df6f2d" d="M 387.5,777.5 C 390.682,784.058 392.682,791.058 393.5,798.5C 393.5,799.167 393.5,799.833 393.5,800.5C 391.535,792.919 389.535,785.253 387.5,777.5 Z"/></g>
<g><path style="opacity:0.251" fill="#df6f2d" d="M 331.5,783.5 C 332.649,783.791 333.316,784.624 333.5,786C 334.093,789.151 334.593,792.318 335,795.5C 337.203,813.531 335.036,830.864 328.5,847.5C 335.075,826.417 336.075,805.084 331.5,783.5 Z"/></g>
<g><path style="opacity:0.495" fill="#cf6e3d" d="M 393.5,798.5 C 396.757,814.659 395.757,830.659 390.5,846.5C 389.957,846.44 389.624,846.107 389.5,845.5C 393.938,830.784 395.271,815.784 393.5,800.5C 393.5,799.833 393.5,799.167 393.5,798.5 Z"/></g>
<g><path style="opacity:0.075" fill="#3b6294" d="M 24.5,818.5 C 26.1042,819.287 26.7709,820.62 26.5,822.5C 25.3263,821.486 24.6596,820.153 24.5,818.5 Z"/></g>
<g><path style="opacity:0.471" fill="#cb6e41" d="M 389.5,850.5 C 387.677,855.48 385.343,860.147 382.5,864.5C 383.869,860.088 385.536,855.754 387.5,851.5C 387.957,850.702 388.624,850.369 389.5,850.5 Z"/></g>
<g><path style="opacity:0.946" fill="#e57325" d="M 267.5,913.5 C 263.837,915.944 259.837,917.611 255.5,918.5C 254.951,920.901 254.118,923.235 253,925.5C 251.886,921.701 250.553,921.701 249,925.5C 248.667,924.833 248.333,924.167 248,923.5C 246.913,925.932 246.413,925.598 246.5,922.5C 245.022,922.238 243.689,922.571 242.5,923.5C 245.35,928.038 248.017,932.704 250.5,937.5C 251.425,936.359 252.259,936.359 253,937.5C 253.667,936.833 254.333,936.167 255,935.5C 256.398,936.051 257.732,936.384 259,936.5C 259.333,935.833 259.667,935.167 260,934.5C 261.533,934.944 263.033,935.277 264.5,935.5C 273.47,933.341 282.47,931.341 291.5,929.5C 281.853,932.912 271.853,935.412 261.5,937C 230.99,941.582 200.656,942.082 170.5,938.5C 172.124,938.64 173.29,937.973 174,936.5C 174.667,939.167 175.333,939.167 176,936.5C 176.805,938.901 177.638,938.734 178.5,936C 178.415,933.02 178.081,930.02 177.5,927C 178,926.5 178.5,926 179,925.5C 179.066,928.276 180.232,930.442 182.5,932C 179.833,934 179.833,936 182.5,938C 182.167,938.333 181.833,938.667 181.5,939C 182.944,939.781 184.277,939.614 185.5,938.5C 185.306,936.93 185.306,935.43 185.5,934C 184.785,931.919 183.785,929.753 182.5,927.5C 183.524,926.148 184.524,924.815 185.5,923.5C 213.778,927.382 241.111,924.048 267.5,913.5 Z"/></g>
<g><path style="opacity:0.075" fill="#3b6294" d="M 1072.5,925.5 C 1073.83,926.167 1073.83,926.167 1072.5,925.5 Z"/></g>
<g><path style="opacity:1" fill="#e65f23" d="M 155.5,916.5 C 165.264,919.774 175.264,922.107 185.5,923.5C 184.524,924.815 183.524,926.148 182.5,927.5C 183.785,929.753 184.785,931.919 185.5,934C 185.306,935.43 185.306,936.93 185.5,938.5C 184.277,939.614 182.944,939.781 181.5,939C 181.833,938.667 182.167,938.333 182.5,938C 179.833,936 179.833,934 182.5,932C 180.232,930.442 179.066,928.276 179,925.5C 178.5,926 178,926.5 177.5,927C 178.081,930.02 178.415,933.02 178.5,936C 177.638,938.734 176.805,938.901 176,936.5C 175.333,939.167 174.667,939.167 174,936.5C 173.29,937.973 172.124,938.64 170.5,938.5C 165.25,938.698 160.25,938.031 155.5,936.5C 157.467,936.739 159.301,936.406 161,935.5C 162.466,937.325 164.299,937.825 166.5,937C 166.757,934.465 167.424,932.131 168.5,930C 166.606,928.899 165.939,927.566 166.5,926C 169.277,923.827 169.11,923.327 166,924.5C 163.833,923 164,921.833 166.5,921C 163.312,920.245 160.145,919.411 157,918.5C 155.97,918.164 155.47,917.497 155.5,916.5 Z"/></g>
</svg>
