<svg id="Layer_1" xmlns="http://www.w3.org/2000/svg" version="1.1" viewBox="0 0 105.21 39.86">
  <path d="M33.3,12.01c3.01,0,5.16.8,7.15,2.68l-2.48,2.78c-1.57-1.37-3.02-1.98-4.69-1.98-3.09,0-5.41,2.42-5.41,5.62v.05c0,3.23,2.32,5.67,5.41,5.67,2.06,0,3.34-.76,4.83-2.06l2.47,2.43c-2.15,2.21-4.31,3.11-7.44,3.11-2.58,0-4.96-.94-6.69-2.64-1.72-1.69-2.67-3.98-2.67-6.45v-.05c0-5.21,4.09-9.14,9.51-9.14M43.42,12.33h3.9v17.66h-3.9V12.32h0ZM59.63,12.03c2.98,0,5.05.69,7.12,2.38l-2.46,2.87c-1.37-1.1-2.67-1.78-4.8-1.78-2.95,0-5.35,2.52-5.35,5.62v.05c0,3.31,2.37,5.72,5.64,5.72,1.5,0,2.83-.37,3.85-1.08l.03-.02v-2.65h-4.07v-3.24h7.84v7.63c-2.26,1.85-4.89,2.78-7.78,2.78-2.73,0-5.2-.92-6.93-2.58-1.72-1.65-2.67-3.96-2.67-6.51v-.05c0-2.46.96-4.76,2.71-6.46,1.78-1.73,4.22-2.68,6.86-2.68M82.97,20c0-3.12-.93-4.5-3.73-4.5-2.55,0-4.2,1.86-4.2,4.57v9.93h-3.9V12.32h3.9v2.18c1.28-1.87,3.15-2.48,5.09-2.48,3.97,0,6.74,2.61,6.74,6.77v11.2h-3.9v-10,.02ZM96.86,18.83c-3.5,0-6.99,2.45-6.99,6.01,0,4.12,3.49,5.47,6.08,5.47,2.98,0,4.08-1.24,5-2.12v1.81h4.02v-11.16c0-4.81-2.68-6.82-7.28-6.82-2.91,0-4.39.62-6.41,1.49l1.1,3.12c1.63-.65,2.68-1.17,4.72-1.17,2.46,0,3.89,1.33,3.89,3.23v.89l-.09-.03c-1.42-.55-2.02-.73-4.05-.73M97.14,27.21c-2.29,0-3.25-1.01-3.25-2.62,0-1.42,1.19-2.56,3.91-2.56,1.35,0,2.7.45,3.27.73v.39c0,2.2-2.23,4.06-3.93,4.06M74.13,37.21v-.02c0-1.45,1.13-2.64,2.68-2.64.91,0,1.48.25,2.01.7l-.71.86c-.38-.33-.75-.52-1.33-.52-.82,0-1.47.72-1.47,1.59v.02c0,.93.64,1.63,1.54,1.63.42,0,.78-.1,1.06-.31v-.73h-1.13v-.97h2.22v2.22c-.53.45-1.25.81-2.18.81-1.59,0-2.68-1.11-2.68-2.63M81.11,34.66h2.34c.65,0,1.15.17,1.49.52.29.29.44.68.44,1.17v.02c0,.82-.45,1.34-1.1,1.59l1.25,1.83h-1.31l-1.1-1.63h-.89v1.63h-1.12v-5.11h0ZM83.37,37.1c.56,0,.86-.28.86-.72v-.02c0-.49-.33-.73-.89-.73h-1.11v1.47h1.14ZM87.18,37.23v-.02c0-1.45,1.15-2.64,2.72-2.64s2.71,1.18,2.71,2.63v.02c0,1.45-1.15,2.64-2.72,2.64s-2.71-1.18-2.71-2.63M91.43,37.23v-.02c0-.88-.64-1.61-1.55-1.61s-1.53.71-1.53,1.59v.02c0,.88.64,1.61,1.54,1.61s1.53-.71,1.53-1.59M94.55,37.58v-2.92h1.12v2.89c0,.84.41,1.26,1.1,1.26s1.1-.41,1.1-1.22v-2.93h1.12v2.89c0,1.55-.87,2.31-2.25,2.31s-2.21-.76-2.21-2.27M101.16,34.66h2.09c1.22,0,1.95.71,1.95,1.77v.02c0,1.19-.92,1.8-2.06,1.8h-.86v1.53h-1.12v-5.11h0ZM103.18,37.2c.57,0,.89-.34.89-.78v-.02c0-.5-.35-.78-.91-.78h-.87v1.56h.89,0ZM32.38,3.53h-1.55v-1.03h4.23v1.03h-1.55v4.06h-1.12V3.53ZM36.91,7.6h1.12v-2.05h2.07v2.05h1.12V2.5h-1.12v2.02h-2.07v-2.02h-1.12v5.1ZM43.45,7.6h3.88v-1h-2.77v-1.07h2.4v-1h-2.4v-1.03h2.73v-1h-3.84v5.1h0Z" fill="#fff"/>
  <path d="M5.43,25.48c-1.56.33-3.16-.1-4.16-1.11l-.05-.05.03-.07c.52-1.37,1.81-2.46,3.36-2.85,1.58-.39,3.15,0,4.3,1.09l.06.05-.04.08c-.63,1.5-1.91,2.54-3.5,2.88M14.85,19.86l.11-.13-.09-.15c-.71-1.2-1.95-1.94-3.4-2.06-1.42-.11-2.78.41-3.58,1.37l-.1.12.07.14c.6,1.1,1.86,1.89,3.27,2.05,1.44.17,2.78-.32,3.7-1.35M6.15,18.92l.09-.11-.07-.13c-.53-.95-1.62-1.63-2.85-1.77-1.25-.14-2.42.3-3.21,1.21l-.1.12.08.14c.62,1.03,1.7,1.68,2.96,1.77,1.23.09,2.42-.37,3.1-1.21M4.06,15.43c1.51.85,3.21.93,4.68.22l.19-.09-.04-.22c-.26-1.64-1.28-3.03-2.81-3.83-1.51-.78-3.25-.83-4.55-.14l-.17.09.03.2c.17,1.49,1.21,2.93,2.68,3.76M10.97,11.32l-.26.05-.04.27c-.19,1.29.34,2.75,1.39,3.81,1.07,1.08,2.47,1.56,3.86,1.32l.29-.05.04-.3c.03-.25.04-.49.02-.74-.06-1.17-.59-2.29-1.51-3.15-1.09-1.01-2.54-1.49-3.78-1.22M6.22,9.62c1,.81,2.26,1.14,3.32.84l.2-.05.02-.22c.02-.21,0-.43,0-.64-.11-.93-.61-1.87-1.39-2.57-.98-.87-2.22-1.21-3.41-.92l-.22.05v.24c-.07,1.24.47,2.44,1.48,3.27M14.59,9.96l.33.08.16-.29c.5-.89.72-1.91.67-2.93-.04-.69-.21-1.4-.51-2.07-.73-1.64-2.12-2.87-3.63-3.18l-.3-.06-.16.26c-.81,1.33-.89,3.2-.23,4.87.68,1.71,2.02,2.91,3.67,3.32M25.72,2.68l-.15-.25-.27.05c-1.36.26-2.61,1.35-3.26,2.84-.67,1.52-.6,3.18.16,4.55l.16.27.29-.07c.89-.21,1.68-.68,2.29-1.35.42-.46.76-1,1-1.63.6-1.52.51-3.21-.23-4.43M11.63,25.97c.65,0,1.32-.17,1.94-.5,1.16-.63,1.91-1.71,2.06-2.96v-.05l-.04-.02c-1.09-.48-2.34-.39-3.43.26-1.11.66-1.86,1.77-1.96,2.9v.04l.04.02c.42.21.89.31,1.4.31M12.13,28l-.02-.05h-.06c-1.27-.02-2.45.58-3.27,1.67-.83,1.11-1.13,2.52-.78,3.68l.02.05h.22c1.09,0,2.23-.59,3.03-1.58.89-1.1,1.21-2.47.85-3.77M17.32,31.05l-.06.04c-.89.47-1.52,1.34-1.68,2.42-.17,1.08.13,2.15.78,2.82l.05.05.06-.03c.82-.38,1.46-1.28,1.67-2.33.22-1.09-.06-2.15-.76-2.91l-.05-.05h0ZM23.4,30.97l-.06-.02-.04.06c-.45.84-.45,1.85,0,2.78.42.88,1.2,1.52,2,1.67h.06l.03-.05c.43-.74.45-1.78.05-2.69s-1.14-1.55-2.04-1.75M8.95,26.51v-.05l-.05-.02c-.9-.4-2.07-.28-3.06.3-1.04.62-1.69,1.63-1.78,2.79v.05l.05.02c.39.16.79.23,1.21.23.67,0,1.33-.2,1.94-.59,1-.65,1.65-1.7,1.7-2.74M16.66,28.5c.55-1.03.59-2.19.11-3.19l-.02-.05h-.05c-1.03.19-1.9.89-2.39,1.91-.5,1.03-.53,2.22-.06,3.1l.02.05h.05c.93-.14,1.83-.83,2.35-1.81M13.75,31.74h-.05c-.68.11-1.33.62-1.71,1.34-.39.76-.41,1.61-.05,2.33l.02.05h.05c.75-.16,1.39-.67,1.73-1.42.36-.76.37-1.63.02-2.26l-.02-.04h0ZM18.64,6.19l.26.2.26-.21c.9-.71,1.4-1.84,1.36-3.08-.05-1.21-.6-2.34-1.47-2.93l-.26-.17-.25.18c-.85.62-1.37,1.76-1.38,2.98v.07c.02,1.21.55,2.28,1.46,2.96M19.05,15.34l.31-.25c1.1-.87,1.69-2.21,1.64-3.72-.05-1.47-.73-2.82-1.77-3.53l-.31-.21-.3.22c-1.02.75-1.65,2.12-1.66,3.59v.09c.03,1.46.66,2.75,1.75,3.57l.32.24h.02ZM20.42,31.33l.04-.04c.63-.63.92-1.66.77-2.7-.16-1.06-.76-1.93-1.63-2.39l-.05-.03-.04.05c-.68.73-.95,1.74-.75,2.79.19,1.03.81,1.91,1.62,2.29l.05.02h0ZM20.59,32.49l-.04-.02-.03.03c-.51.55-.71,1.31-.57,2.11.15.78.61,1.44,1.22,1.73l.04.02.03-.03c.47-.47.69-1.26.58-2.04-.12-.79-.57-1.45-1.23-1.81" fill="#fff"/>
</svg>