<svg id="svg9121" xmlns="http://www.w3.org/2000/svg" version="1.1" viewBox="0 0 149.73 55.44">
  <g id="layer1">
    <g id="g9175">
      <path id="path8097" d="M29.03,6.65c-2.24,0-5.46.71-11.3,2.65v36.81c5.13,1.67,9.06,2.65,11.3,2.65,5.15,0,8.06-3.39,8.06-8.84V15.49c0-5.44-2.91-8.84-8.06-8.84M30.72,38.99c0,2.13-1.19,2.84-2.61,2.84-1.11,0-2.81-.43-4.21-.84V14.43c1.39-.4,3.1-.83,4.21-.83,1.42,0,2.61.71,2.61,2.84v22.55Z" fill="#fff"/>
      <path id="path8101" d="M88,.03c-6.53-.34-10.41,2.76-10.41,9.86v35.27c0,7.5,3.52,10.58,10.41,10.26,6.75-.32,10.26-3.08,10.26-11.05V10.7c0-7.6-3.18-10.3-10.26-10.67M91.15,44.53c0,2.13-.66,3.23-3.15,3.31-2.57.08-3.26-1.1-3.26-3.31V10.91c0-2.21.7-3.43,3.26-3.35,2.49.08,3.15,1.22,3.15,3.35v33.62Z" fill="#fff"/>
      <path id="path8105" d="M138.43,15.23v24.92c7.18-3.67,11.3-7.94,11.3-12.51s-4.12-8.77-11.3-12.41" fill="#fff"/>
      <path id="path8109" d="M0,27.64c0,4.56,4.12,8.84,11.3,12.5V15.24C4.12,18.88,0,23.12,0,27.64" fill="#fff"/>
      <path id="path8113" d="M49.92,41.71c0,1.91-.61,3.12-2.83,2.83-2.18-.28-2.76-1.28-2.76-3.54V5.07c-1.45.17-4.67.65-6.05.86v36.34c0,5.8,2.62,8.06,8.81,8.82,5.67.7,9.14-2.38,9.14-8.82V3.88c-1.18.07-5.06.42-6.31.57v37.26Z" fill="#fff"/>
      <path id="path8117" d="M112.35,29.82l-7-24.59c-1.91-.27-4.21-.55-5.98-.72v46.41c1.25-.13,4.43-.52,6.08-.74l-.5-27.35,7.41,26.28c1.58-.27,3.88-.7,5.39-1.01V7.32c-1.58-.33-4.45-.86-5.83-1.08l.43,23.58Z" fill="#fff"/>
      <path id="path8121" d="M67.55.33c-1.22,0-5.69.16-9.79.43v53.92c1.39.08,5.06.28,7.04.34v-18.31h2.76c7.38-.03,10.44-3.59,10.44-10.44v-15.89c0-6.7-3.44-10.05-10.44-10.05M70.88,26.65c0,2.32-.75,3.5-3.61,3.5h-2.47s0-21.27,0-21.27c1.1-.06,1.69-.08,2.35-.08,3.09,0,3.74,1.26,3.74,3.63v14.22Z" fill="#fff"/>
      <path id="path8125" d="M118.83,14.51c1.56.3,3.1.64,4.6.99v30.86c1.38-.35,3.95-1.07,5.65-1.61v-27.79c1.64.46,3.19.92,4.6,1.35v-5.95c-4.46-1.68-9.26-3.04-14.86-4.3v6.45Z" fill="#fff"/>
    </g>
  </g>
</svg>