<svg xmlns="http://www.w3.org/2000/svg" version="1.1" viewBox="0 0 215.74 62.71">
  <g id="Layer_1" focusable="false">
    <path d="M48.53,47.67s-6.72-2.4-17.28-2.4-17.28,2.4-17.28,2.4V15.04h.48s2.88,28.8,16.8,28.8,16.8-28.8,16.8-28.8h.48v32.64ZM31.19,0C13.92,0,0,14.08,0,31.36s14.08,31.36,31.36,31.36,31.36-14.08,31.36-31.36S48.47,0,31.2,0h0ZM215.74,23.7c-.56-.21-1.16-.32-1.76-.32-2.24,0-4,1.28-5.28,3.2v-.32c0-1.28-.32-1.92-.8-2.72l-4,1.12c.48,1.28.64,2.72.64,5.12v14.56h4.48v-13.6c.16-1.12.48-1.6,1.28-2.24.8-.8,1.76-.96,2.72-.96.48,0,.8.16,1.28.32l1.44-4.16ZM207.37,35v-.8c0-4.48-.96-7.04-2.56-8.64-1.44-1.44-3.52-2.24-5.92-2.24-2.56,0-4.64.96-6.4,2.72-1.6,1.76-2.56,4.32-2.56,7.84,0,6.56,3.68,10.72,9.6,10.72,2.72,0,5.44-.96,7.52-2.72l-1.76-2.56c-1.6,1.28-3.36,1.92-5.28,1.92s-3.52-.8-4.48-2.08c-.64-.96-.96-2.4-.96-3.84v-.32h12.8ZM193.53,45.65l-.8-2.56c-.64.16-1.12,0-1.44-.32-.32-.48-.48-1.28-.48-3.2v-17.6c0-2.56,0-4.48-.32-5.76l-4.48.96c.32,1.6.48,3.04.48,5.92v17.6c0,2.24.48,3.36.96,4.16.64.96,1.92,1.44,3.36,1.44.96-.16,1.76-.32,2.72-.64h0ZM179.29,23.7c0-1.6-1.28-2.88-3.04-2.88-1.6,0-3.04,1.28-3.04,2.88s1.44,2.88,2.88,2.88c1.92,0,3.2-1.28,3.2-2.88ZM187,45.65l-.8-2.56h-.48c-.8,0-1.44-.48-1.44-1.92v-19.2c0-2.56,0-4.48-.32-5.76l-4.48.96c.32,1.6.48,3.04.48,5.92v18.39c0,3.04,1.76,4.8,4.32,4.8,1.12-.16,1.92-.32,2.72-.64h0ZM178.49,44.2v-20.8l-4.48.64v20h4.48v.16ZM177.21,45.45l-2.4-27.84h-6.24l-5.6,20.47-5.6-20.31h-6.4l-2.72,27.84h4.16l1.92-23.36,6.56,23.36h3.36l6.56-22.88,1.92,22.88h4.48v-.16h0ZM153.37,44.12v-15.04c0-3.84-2.24-5.6-5.6-5.6-2.24,0-4,.8-6.4,2.72,0-.96-.32-1.92-.8-2.72l-4,1.12c.64,1.44.64,2.4.64,4.8v15.04h4.32v-14.72c1.44-1.44,3.36-2.4,4.8-2.4,1.76,0,2.4.8,2.4,3.68v13.44h4.64v-.32h0ZM141.03,42.17c-1.44-.96-1.92-1.76-1.92-4.16v-.64l.16-6.08v-1.28c0-2.08-.16-2.72-.32-3.52-.8-2.24-3.04-3.36-6.24-3.36-1.92,0-3.68.32-5.6,1.12-1.12.48-2.24.96-3.36,1.6l1.92,3.04c.8-.64,1.44-.96,2.56-1.44,1.44-.64,2.72-.96,3.84-.96,1.28,0,1.92.32,2.4.96.48.64.64,1.28.64,2.72v1.44h-1.44c-6.88,0-10.56,2.4-10.56,7.2,0,1.6.48,3.36,1.6,4.32,1.28,1.12,2.72,1.6,5.28,1.6,1.59.02,3.14-.43,4.48-1.28.48-.32.64-.64,1.28-1.28.48,1.28,1.6,2.24,2.88,2.72l2.4-2.72ZM128.93,44.2v-14.88c0-2.24-.48-3.68-1.6-4.64-.8-.8-2.4-1.28-3.84-1.28-2.24,0-4.64,1.12-6.4,3.04-.96-1.92-2.72-3.04-4.96-3.04-1.92,0-4.16,1.12-5.6,2.56-.15-.89-.42-1.75-.8-2.56l-4,.96c.64,1.28.8,2.08.8,4.96v14.72h4.32v-15.04c1.76-1.44,3.2-2.08,4.48-2.08,1.76,0,2.4.96,2.4,3.2v13.92h4.32v-14.72c1.76-1.76,3.36-2.56,4.64-2.56,1.6,0,2.24.8,2.24,2.88v14.24h4v.32ZM108.02,23.7c-.56-.21-1.16-.32-1.76-.32-2.24,0-3.84,1.28-5.28,3.2v-.32c0-1.28-.32-1.92-.8-2.72l-4.16,1.12c.48,1.28.64,2.72.64,5.12v14.56h4.48v-13.6c.16-1.12.48-1.6,1.28-2.24.8-.8,1.76-.96,2.72-.96.48,0,.8.16,1.28.32l1.6-4.16h0ZM99.69,35v-.8c0-4.48-.96-7.04-2.56-8.64-1.44-1.44-3.52-2.24-5.76-2.24-2.72,0-4.8.96-6.4,2.72-1.6,1.76-2.56,4.32-2.56,7.84,0,6.56,3.68,10.72,9.6,10.72,2.88,0,5.44-.96,7.52-2.72l-1.76-2.56c-1.6,1.28-3.36,1.92-5.28,1.92s-3.52-.8-4.48-2.08c-.64-.96-.8-2.4-.8-3.84v-.32h12.48,0ZM86.7,45.42v-27.68h-4.48v11.2h-10.4v-11.2h-4.48v27.84h4.48v-12.96h10.4v12.96l4.48-.16h0ZM202.67,33.67h-7.84c.16-3.52,1.44-5.44,4-5.44,2.4,0,3.84,2.08,3.84,5.44ZM135.21,33.07l-.16,4.8c-.8,1.44-2.4,2.24-4,2.24-1.92,0-3.04-1.12-3.04-3.2,0-1.28.32-2.08,1.12-2.72.8-.8,2.4-1.28,5.12-1.28.32.16.64.16.96.16ZM95.05,33.67h-8c0-3.52,1.6-5.44,4-5.44,2.56,0,4,2.08,4,5.44Z" fill="#fff"/>
  </g>
</svg>