<svg id="Layer_1" xmlns="http://www.w3.org/2000/svg" version="1.1" viewBox="0 0 300.97 21.99">
  <path d="M27.66,20.42c-2.14,0-3.33-2.03-3.33-5.69s1.2-5.69,3.33-5.69,3.33,1.99,3.33,5.69-1.2,5.69-3.33,5.69ZM27.66,7.57c-4.35,0-6.78,3.26-6.78,7.21s2.43,7.21,6.78,7.21,6.78-3.26,6.78-7.21-2.43-7.21-6.78-7.21ZM69.53,7.52c-2.07,0-3.19.91-3.84,2.03h-.14v-1.74h-3.26v13.88h3.26v-8.99c0-2.07,1.05-3.26,2.75-3.26s2.36,1.09,2.36,2.72v9.5h3.26v-9.53c0-2.86-1.52-4.6-4.39-4.6ZM86.63,7.56c-3.01,0-5.29,1.27-5.29,3.99,0,2.32,1.59,3.55,3.37,3.99l2.75.69c1.49.36,2.14.91,2.14,2.07,0,1.41-1.01,2.21-2.75,2.21-1.88,0-2.86-.91-3.15-3.23l-2.94.83c.18,2.39,2.39,3.84,5.73,3.84,3.73,0,5.76-1.74,5.76-4.53,0-2.61-1.81-3.7-3.7-4.17l-2.65-.65c-1.34-.33-1.92-.94-1.92-1.85,0-1.12.94-1.78,2.36-1.78,1.67,0,2.68.91,2.83,2.65l2.75-.83c-.33-1.88-2.25-3.23-5.29-3.23ZM105.95,20.42c-2.14,0-3.33-2.03-3.33-5.69s1.2-5.69,3.33-5.69,3.33,1.99,3.33,5.69-1.2,5.69-3.33,5.69ZM105.95,7.57c-4.35,0-6.78,3.26-6.78,7.21s2.43,7.21,6.78,7.21,6.78-3.26,6.78-7.21-2.43-7.21-6.78-7.21ZM127.78,7.52c-2.07,0-3.19.91-3.84,2.03h-.18v-1.74h-3.26v13.88h3.26v-8.99c0-2.07,1.05-3.26,2.75-3.26s2.36,1.09,2.36,2.72v9.5h3.26v-9.53c0-2.86-1.49-4.6-4.35-4.6ZM196.55,20.42c-2.14,0-3.33-2.03-3.33-5.69s1.2-5.69,3.33-5.69,3.33,1.99,3.33,5.69c-.04,3.73-1.2,5.69-3.33,5.69ZM196.55,7.57c-4.35,0-6.78,3.26-6.78,7.21s2.43,7.21,6.78,7.21,6.78-3.26,6.78-7.21c-.04-3.99-2.43-7.21-6.78-7.21ZM238.35,7.52c-2.07,0-3.19.91-3.84,2.03h-.18v-1.74h-3.26v13.88h3.26v-8.99c0-2.07,1.05-3.26,2.75-3.26s2.36,1.09,2.36,2.72v9.5h3.26v-9.53c.04-2.86-1.45-4.6-4.35-4.6ZM255.47,7.56c-3.01,0-5.29,1.27-5.29,3.99,0,2.32,1.59,3.55,3.37,3.99l2.75.69c1.49.36,2.14.91,2.14,2.07,0,1.41-1.01,2.21-2.75,2.21-1.88,0-2.86-.91-3.15-3.23l-2.94.83c.18,2.39,2.39,3.84,5.73,3.84,3.73,0,5.76-1.74,5.76-4.53,0-2.61-1.81-3.7-3.7-4.17l-2.65-.65c-1.34-.33-1.92-.94-1.92-1.85,0-1.12.94-1.78,2.36-1.78,1.67,0,2.68.91,2.83,2.65l2.75-.83c-.29-1.88-2.21-3.23-5.29-3.23ZM274.84,20.42c-2.14,0-3.33-2.03-3.33-5.69s1.2-5.69,3.33-5.69,3.33,1.99,3.33,5.69c-.04,3.73-1.23,5.69-3.33,5.69ZM274.84,7.57c-4.35,0-6.78,3.26-6.78,7.21s2.43,7.21,6.78,7.21,6.78-3.26,6.78-7.21c-.04-3.99-2.43-7.21-6.78-7.21ZM296.62,7.52c-2.07,0-3.19.91-3.84,2.03h-.18v-1.74h-3.26v13.88h3.26v-8.99c0-2.07,1.05-3.26,2.75-3.26s2.36,1.09,2.36,2.72v9.5h3.26v-9.53c.04-2.86-1.45-4.6-4.35-4.6ZM12.87,1.24h-3.44v14.32c0,2.32-.91,3.7-3.01,3.7-2.07.04-2.97-1.41-2.97-3.95v-2.65l-3.44.83v1.2c0,3.62,1.81,6.42,6.42,6.42s6.42-2.75,6.42-6.42V1.24h.04ZM45.52,1.15h-3.26v19.39h3.26v-8.92c0-2.07,1.05-3.26,2.75-3.26s2.36,1.09,2.36,2.72v9.5h3.26v-9.53c0-2.86-1.49-4.64-4.39-4.64-2.07,0-3.19.91-3.84,2.03h-.18V1.15h.04ZM181.7,1.24h-3.44v14.32c0,2.32-.91,3.7-3.01,3.7s-3.01-1.49-3.01-3.99v-2.65l-3.44.87v1.2c0,3.62,1.81,6.42,6.42,6.42s6.42-2.75,6.42-6.42V1.24h.07ZM214.35,1.15h-3.26v19.39h3.26v-8.92c0-2.07,1.05-3.26,2.75-3.26s2.36,1.09,2.36,2.72v9.5h3.26v-9.53c0-2.86-1.49-4.64-4.39-4.64-2.07,0-3.19.91-3.84,2.03h-.18V1.15h.04ZM149.49,20.65c-2.65,0-4.31-2.17-4.31-4.46,0-1.45.65-2.75,1.7-3.52l6.27,6.85c-1.16.69-2.46,1.12-3.66,1.12ZM157.24,16.16l-5.44-5.98c.98-.4,1.92-.54,2.68-.54,2.25,0,3.62,1.3,3.62,3.55.04,1.01-.25,2.03-.87,2.97ZM149.56,6.63l-1.2-1.34c-1.05-1.16-1.34-1.88-1.34-2.75,0-1.59,1.01-2.54,2.65-2.54s2.61.94,2.61,2.65c-.04,1.63-.8,3.12-2.72,3.99ZM150.33.72c-3.84,0-5.73,2.14-5.73,4.78,0,1.45.62,2.9,2.21,4.64l.04.07c-2.72,1.3-3.95,3.41-3.95,5.58,0,2.86,2.17,5.26,5.58,5.26,1.96,0,4.2-.8,6.27-2.25l1.67,1.81h4.35v-.14l-3.55-3.91c1.49-1.78,2.36-3.7,2.36-5.4,0-2.1-1.41-3.52-3.62-3.52-1.16,0-2.46.33-3.33.65l-.07-.11c2.1-1.12,3.01-2.17,3.01-3.66,0-2.14-1.88-3.81-5.22-3.81Z" fill="#fff"/>
</svg>