<svg id="Lilly_Script" xmlns="http://www.w3.org/2000/svg" version="1.1" viewBox="0 0 80.15 43.69">
  <path d="M53.7,25.6c.47-.33.97-.72,1.43-1.09,3.6-2.89,6.36-6.05,6.91-7.8.02-.06.06-.21.06-.35,0-.18-.08-.31-.25-.31-1.66,0-6.97,5.29-8.26,9.58h0l.1-.04h.01ZM41.4,25.15c5.02-3.79,10.3-9.32,10.86-11.59.01-.07.04-.14.04-.21,0-.16-.1-.29-.27-.29-1.59,0-8.95,6.79-10.61,12.09M13.98,27.71c-1.32-.92-3.38-1.72-5.21-1.72s-2.91.69-2.91,1.57c0,1.01,1.38,1.46,2.92,1.46,1.87,0,3.57-.5,5.2-1.31M27.14,17.34c3.6-1.16,7.02-3.57,9.56-6.08,2.35-2.34,4.24-5.11,4.24-6.48,0-.31-.23-.5-.51-.5-1.09,0-3.16,1.44-5.94,4.24-2.17,2.17-4.69,5.14-7.35,8.83M80.15,25.03c-3.09,3.08-12.72,11.54-15.27,18.66l-3.16-.81c1.04-2.95,4.14-7.54,7.6-11.07-.74.27-1.5.38-2.12.38-.93,0-1.66-.29-2.1-.81-.31-.38-.48-.88-.48-1.47,0-.13,0-.26.02-.41-3.04,1.85-5.49,2.7-7.89,2.7-1.86,0-3.44-.81-4.16-2.24-3.02,1.5-5.92,2.24-8.34,2.24-2.25,0-4.07-.89-4.9-2.52-3.05,1.72-5.64,2.52-7.72,2.52-1.19,0-2.14-.33-2.74-.95-.44-.45-.68-1.07-.72-1.79-1.96,1.29-4.82,2.74-7.76,2.74s-5.01-1.03-6.57-2.05c-2.48,1.38-5.23,2.05-8.13,2.05-2.18,0-5.72-.91-5.72-4.06,0-2.54,2.65-4.25,6.18-4.25,3.01,0,5.91,1.26,7.72,2.59,1.73-1.37,3.53-3.29,5.67-6.01-.47.02-.93.04-1.38.04-4.09,0-7.5-1.21-9.37-3.32-1-1.15-1.48-2.48-1.48-3.93,0-5.69,7.18-10.11,13.47-10.76.42.94.79,1.67,1.17,2.53-6.22.72-11.38,4.4-11.38,7.99,0,2.36,2.65,4.74,8.29,4.74.97,0,1.93-.1,2.89-.23C26.8,10.67,34.41,0,40.97,0c1.94,0,2.96,1.18,2.96,2.76,0,3.25-2.79,6.74-4.61,8.57-2.86,2.88-8.03,7.15-15.25,8.57-2.8,3.91-5.12,6.5-7.42,8.38,1.4.75,2.71,1.22,4.27,1.22,3.89,0,7.65-3.56,10.59-6.57l.11-.1,2.29,1.79-.11.13c-1.3,1.49-2.51,3.07-2.51,3.95,0,.67.57.8,1.05.8,1.49,0,3.78-.97,6.48-2.62v-.02c.3-6.67,9.4-16.87,14.93-16.87,1.56,0,2.46.78,2.46,2.14,0,3.34-5.76,10.51-14.15,16h0c.43.94,1.43,1.38,3.13,1.38,1.32,0,3.91-.58,6.99-2.2.36-3.46,2.31-7.17,4.8-9.81,2.49-2.65,5.29-4.37,7.7-4.37,1.49,0,2.36.82,2.36,2.11,0,2.92-3.39,7.91-11.54,13.12.36.7,1.06,1.15,2.15,1.15,2.43,0,6.71-2.59,10.03-5.79l2.4,1.86c-1.03,1.24-2.05,2.6-2.03,3.39,0,.25.18.43.58.43,2.46,0,6.32-3.25,9.22-6.11l2.29,1.78v-.02ZM36.07,18.48c1.09,0,1.96.88,1.96,1.97s-.87,1.97-1.96,1.97-1.97-.88-1.97-1.97.88-1.97,1.97-1.97" fill="#fff"/>
</svg>