<svg id="Layer_1" xmlns="http://www.w3.org/2000/svg" version="1.1" viewBox="0 0 84.25 16.36">
  <g id="layer1">
    <g id="g14189">
      <path id="path14179" d="M36.56,3.72h2.76v8.92h-2.05v-6l-2.62,6-2.76-6.01v6.01h-1.91V3.72h2.73l1.97,4.62,1.87-4.62Z" fill="#fff"/>
      <path id="path14177" d="M44.45,3.72v8.92h5.15v-1.51h-3.15v-2.27h3.02v-1.53h-3.02v-2.05h3.15v-1.57h-5.15Z" fill="#fff"/>
      <path id="path14175" d="M64.14,8.23c0,3.32,3.47,5.98,7.12,4.2v-1.91c-2.81,1.97-5.26,0-5.22-2.21.03-1.47,1.01-2.86,2.92-2.97.94-.05,1.57.18,2.29.87v-1.99c-2.64-1.56-7.12.16-7.12,4.02" fill="#fff"/>
      <path id="path14173" d="M74.76,12.66h1.9V3.83h-1.9v8.84Z" fill="#fff"/>
      <path id="path14171" d="M80.97,7.88l2.87-4.03h-2.22l-2.84,4.02,3.3,4.79h2.18l-3.28-4.78Z" fill="#fff"/>
      <path id="path14169" d="M55.29,5.2v5.96h1.34v-3.2l2.21,3.2h1.43l-1.75-2.5c.81-.31,1.07-.99,1.07-1.67s-.57-1.79-1.95-1.79h-2.35ZM56.46,5.64h.58c.99,0,1.04.65,1.04.89,0,.46-.39.85-.89.85h-.73v-1.74Z" fill="#fff"/>
      <path id="path13366" d="M4.46,2.98c0-1.65,1.33-2.98,2.98-2.98s2.98,1.33,2.98,2.98h-5.96ZM2.98,11.16c0-1.65,1.33-2.98,2.98-2.98-1.65,0-2.98-1.33-2.98-2.98-1.65,0-2.98,1.33-2.98,2.98s1.33,2.98,2.98,2.98M4.46,13.38c0,1.65,1.33,2.98,2.98,2.98s2.98-1.33,2.98-2.98h-5.96ZM8.92,8.18c1.65,0,2.98,1.33,2.98,2.98,1.65,0,2.98-1.33,2.98-2.98s-1.33-2.98-2.98-2.98c0,1.65-1.33,2.98-2.98,2.98" fill="#fff"/>
    </g>
  </g>
</svg>