<?xml version="1.0" encoding="UTF-8"?>
<svg id="Layer_2" xmlns="http://www.w3.org/2000/svg" version="1.1" viewBox="0 0 246.2 50.1">
  <!-- Generator: Adobe Illustrator 29.8.4, SVG Export Plug-In . SVG Version: 2.1.1 Build 6)  -->
  <defs>
    <style>
      .st0 {
        fill: #0eb2af;
      }

      .st1 {
        fill: #fff;
      }
    </style>
  </defs>
  <path class="st1" d="M172.6,27.8c0,3.3-.4,6.2-1.2,8.7-.8,2.3-2.1,4.6-3.9,6.6-2.5,2.8-5.4,4.8-8.7,5.9-.2,0-.5.2-.7.2-.6.2-1.1.3-1.7.4-1.5.3-3.1.5-4.7.5-3.3,0-6.3-.6-9.1-1.8-2.5-1.1-4.9-2.8-7-4.9-4.5-4.6-6.7-10-6.7-16.4s2.2-12,6.8-16.6c4.6-4.6,10-6.8,16.6-6.8s6.1.6,8.9,1.7l-1.3,2.7c-2.3-1-4.8-1.5-7.4-1.5-5.7,0-10.5,2-14.4,5.9-3.9,3.9-5.8,8.8-5.8,14.6s2.2,11,6.5,14.9c1.7,1.5,3.5,2.7,5.3,3.6,2.5,1.2,5.2,1.8,7.9,1.8s.9,0,1.4,0c3.5-.3,6.8-1.6,9.6-4h0c3.3-2.9,5.1-6.3,5.5-10.2l.2-2.2h-6.4l1.4-2.9h8.8Z"/>
  <polygon class="st1" points="220 48.5 216.6 48.5 199.3 12.3 181.7 48.7 178.2 48.7 199.3 5.1 220 48.5"/>
  <polygon class="st0" points="202.4 37.7 195.9 37.7 199.2 31 202.4 37.7"/>
  <polygon class="st1" points="84.7 48.5 81.3 48.5 64 12.3 46.4 48.7 42.9 48.7 64 5.1 84.7 48.5"/>
  <path class="st1" d="M106.3,29l10.3,20.2h-3.3l-6.4-12.6-4.7-9.8h1.5c1.6,0,2.9-.1,4.1-.4,5.4-1,8.3-4.4,8.3-9.6s-1.1-5.5-3.2-7.1c-2-1.6-4.9-2.4-8.8-2.4h-19.2l-1.4-2.9h19c1.5,0,2.9,0,4.2.2,2.6.3,4.8.8,6.4,1.7.8.4,1.4.8,2,1.3,2.7,2.3,4,5.3,4,9.2s-.8,5.5-2.5,7.7c-1.7,2.1-3.9,3.5-6.7,4.1,0,0-3.7.5-3.7.6Z"/>
  <polygon class="st1" points="45.3 4.5 43.9 7.4 21.9 7.4 21.9 49.2 18.5 49.2 18.5 7.4 0 7.4 1.4 4.5 45.3 4.5"/>
  <path class="st0" d="M232.2,0l-7.7,16.6h2.5l1.7-3.8,1-2.2,2.4-5.3,2.3,5.3,1,2.2,1.6,3.8h2.6l-7.5-16.6Z"/>
  <rect class="st0" x="243.8" y="1" width="2.4" height="15.6"/>
  <polygon class="st0" points="67 37.7 60.6 37.7 63.8 31 67 37.7"/>
</svg>