<?xml version="1.0" encoding="UTF-8"?>
<svg id="svg3794" xmlns="http://www.w3.org/2000/svg" xmlns:svg="http://www.w3.org/2000/svg" xmlns:rdf="http://www.w3.org/1999/02/22-rdf-syntax-ns#" xmlns:dc="http://purl.org/dc/elements/1.1/" xmlns:cc="http://creativecommons.org/ns#" version="1.1" viewBox="0 0 40 40">
  <!-- Generator: Adobe Illustrator 30.2.1, SVG Export Plug-In . SVG Version: 2.1.1 Build 1)  -->
  <g id="layer1">
    <g id="g3460">
      <path id="path3462" d="M20.0012,2.1615c-4.9242,0-9.3837,1.9974-12.6124,5.2285-3.23,3.2238-5.2261,7.6857-5.2261,12.6124,0,4.923,1.9961,9.3819,5.2261,12.6069,3.2287,3.2269,7.6882,5.2279,12.6124,5.2279s9.3874-2.001,12.6112-5.2279c3.2287-3.225,5.2205-7.6839,5.2205-12.6069,0-4.9267-1.9918-9.3886-5.2205-12.6124-3.2238-3.2312-7.6857-5.2285-12.6112-5.2285M20.0012,0C31.0454,0,40,8.9558,40,20.0025s-8.9546,19.9975-19.9988,19.9975S0,31.0454,0,20.0025,8.9583,0,20.0012,0" fill="#fff"/>
    </g>
    <g id="g3464">
      <path id="path3466" d="M10.5421,19.8395c0-1.1656-.7734-1.8277-1.8683-1.8277h-.6701v3.6566h.651c1.018,0,1.8873-.5533,1.8873-1.8289M22.4617,21.1551l-4.9365,3.8871-4.5117-3.5521c-.651,1.564-2.2242,2.6502-4.0359,2.6502h-3.8613v-8.6017h3.8613c2.0244,0,3.4832,1.2873,4.0347,2.6588l4.513-3.5484,1.6715,1.3156-4.1361,3.2509.7949.6221,4.1349-3.249,1.674,1.3119-4.1355,3.2545.7937.6234,4.1392-3.2552v-2.9847h3.0006v6.091h2.9933v2.5211h-5.9939v-2.9957ZM32.2567,21.6309h2.992v2.5199h-5.9958v-8.6122h3.0037v6.0923Z" fill="#fff"/>
    </g>
  </g>
</svg>