<?xml version="1.0" encoding="UTF-8"?>
<svg xmlns="http://www.w3.org/2000/svg" xmlns:svg="http://www.w3.org/2000/svg" xmlns:sodipodi="http://sodipodi.sourceforge.net/DTD/sodipodi-0.dtd" xmlns:rdf="http://www.w3.org/1999/02/22-rdf-syntax-ns#" xmlns:inkscape="http://www.inkscape.org/namespaces/inkscape" xmlns:dc="http://purl.org/dc/elements/1.1/" xmlns:cc="http://creativecommons.org/ns#" version="1.1" viewBox="0 0 40 40">
  <!-- Generator: Adobe Illustrator 30.2.1, SVG Export Plug-In . SVG Version: 2.1.1 Build 1)  -->
  <g id="svg3009" inkscape:version="0.48.2 r9819" sodipodi:docname="c02716792.pdf">
    <sodipodi:namedview id="namedview3011" bordercolor="#666666" borderopacity="1" fit-margin-bottom="0.1" fit-margin-left="0.1" fit-margin-right="0.1" fit-margin-top="0.1" gridtolerance="10" guidetolerance="10" inkscape:current-layer="g3017" inkscape:cx="574.39154" inkscape:cy="-78.418282" inkscape:pageopacity="0" inkscape:pageshadow="2" inkscape:window-height="1028" inkscape:window-maximized="1" inkscape:window-width="1920" inkscape:window-x="-8" inkscape:window-y="-8" inkscape:zoom="0.67425131" objecttolerance="10" pagecolor="#ffffff" showgrid="false"/>
    <g id="g3017" inkscape:groupmode="layer" inkscape:label="c02716792">
      <g id="g3061">
        <g id="g3021">
          <path id="path3023" d="M40,20C40,8.9539,31.0461,0,20,0c-.3012,0-.6008.0076-.899.0213l-4.091,11.2439h3.5631c2.1196,0,3.262,1.6321,2.5364,3.6255l-5.0462,13.8677-4.237-.0008,5.4151-14.8641h-3.1859l-5.4151,14.8641h-4.2385l6.3673-17.4925h.0008L14.6001.7385C6.1779,3.0946,0,10.8256,0,20c0,9.4467,6.5506,17.3632,15.3569,19.457l3.7115-10.1996h.003l6.5475-17.9922h7.8039c2.1219,0,3.2635,1.6321,2.5379,3.6255l-4.434,12.1801c-.3377.9279-1.4215,1.6869-2.4086,1.6869h-5.625l-4.0872,11.2332c.197.0053.3955.0091.594.0091,11.0461,0,20-8.9546,20-20" inkscape:connector-curvature="0" fill="#fff"/>
        </g>
        <g id="g3025">
          <path id="path3027" d="M32.1018,13.883h-3.1844l-4.4598,12.2364h3.1844l4.4598-12.2364" inkscape:connector-curvature="0" fill="#fff"/>
        </g>
      </g>
    </g>
  </g>
</svg>