<?xml version="1.0" encoding="UTF-8"?>
<svg id="Layer_1" xmlns="http://www.w3.org/2000/svg" version="1.1" viewBox="0 0 242.7818 40">
  <!-- Generator: Adobe Illustrator 30.2.1, SVG Export Plug-In . SVG Version: 2.1.1 Build 1)  -->
  <path d="M14.1157,0h6.9465c-1.0839,10.4055-2.1782,20.8094-3.2829,31.2115-.0962.0796-.2073.1113-.333.0952-1.0789-10.4405-2.1891-20.8761-3.3305-31.3067Z" fill="#fff" fill-rule="evenodd" isolation="isolate" opacity=".979"/>
  <path d="M12.498,37.6822c-.0029.0949.0447.1583.1427.1903.2993.0867.6006.166.904.2379-.2379.0793-.2538.1903-.0476.333.2959-.1116.3118-.064.0476.1427-.0534.149.0101.2759.1903.3806-.1024.2028-.1659.4249-.1903.6661-.2094.0785-.3839.0309-.5234-.1427-.1617.0862-.3362.1179-.5234.0952-3.911-.4294-7.1939-2.0789-9.8488-4.9482-1.3996-1.7447-2.2085-3.7113-2.4265-5.8997.0258-.1789-.0377-.3057-.1903-.3806-.169-2.7891.3226-5.4851,1.4749-8.0884,1.1198-2.3029,2.1348-4.65,3.045-7.0416.6581-1.9886.7533-3.9552.2855-5.8997-.3653-1.1919-.9839-2.2228-1.8556-3.0926.0214-.1542.1007-.2653.2379-.333,4.3566,1.2761,6.6562,4.1783,6.8989,8.7069.0152,1.3198-.191,2.6044-.6185,3.8539-.7403,1.9881-1.5333,3.9546-2.3789,5.8997-1.0824,2.5333-1.463,5.166-1.1419,7.898.7385,3.7359,2.9112,6.21,6.5183,7.4223Z" fill="#fff" fill-rule="evenodd"/>
  <path d="M99.7571,38.5386c-4.579,1.522-8.7021.8084-12.3704-2.141-3.651-3.5791-4.9039-7.8771-3.7587-12.8938,1.5532-5.2259,5.0264-8.2551,10.4197-9.0875,4.9015-.399,8.7554,1.3932,11.5616,5.3764,1.7813,3.0282,2.2895,6.2635,1.5225,9.706-.9154,4.292-3.3743,7.3052-7.3747,9.0399ZM93.8574,15.6058c2.4998-.1557,4.5771.7007,6.2328,2.5692,2.1505,2.7231,3.2125,5.8316,3.1878,9.3254.0904,2.8126-.5919,5.4135-2.0459,7.8029-2.0611,2.6003-4.6779,3.3773-7.8505,2.3313-1.7452-.8253-3.0932-2.0781-4.0442-3.7587-2.236-4.2486-2.6166-8.6575-1.1419-13.2268.9282-2.785,2.8154-4.4661,5.6618-5.0433Z" fill="#fff" fill-rule="evenodd" isolation="isolate" opacity=".969"/>
  <path d="M145.147,14.3687c.1256-.0162.2369.0155.333.0952,2.7786,7.4149,5.5381,14.8372,8.2787,22.2668.0733.1284.1846.2076.333.2379.787.2362,1.5806.4423,2.3789.6185v1.0467h-10.0867v-1.0467c1.1124-.2069,2.2229-.4289,3.3305-.6661-.7413-2.0974-1.5025-4.1908-2.2838-6.2804-2.9813-.0952-5.9625-.1268-8.9448-.0952-.7061,2.1111-1.4673,4.2045-2.2838,6.2804,1.0991.3022,2.2086.556,3.3305.7613v1.0467h-7.7077c-.0276-.3431.0038-.6762.0952-.9991.8031-.2571,1.612-.495,2.4265-.7137,2.8262-7.2553,5.5695-14.5507,8.2311-21.8861.8859-.15,1.7423-.372,2.5692-.6661ZM142.9584,18.5556c1.3036,3.3236,2.5731,6.67,3.8063,10.0391-2.5064.0793-5.0119.0635-7.5174-.0476,1.2561-3.3254,2.4931-6.6559,3.7111-9.9915Z" fill="#fff" fill-rule="evenodd" isolation="isolate" opacity=".957"/>
  <path d="M234.0238,14.3687c2.3333-.122,4.6018.1952,6.8037.9516.2427,1.8386.4168,3.6624.5234,5.4715-.2788.0739-.5481.058-.8088-.0476-.6442-1.462-1.3255-2.9051-2.0459-4.3296-1.7871-.9121-3.6274-1.0389-5.5191-.3806-1.7033.8526-2.417,2.2324-2.141,4.1393.2198,1.0267.7432,1.8673,1.5701,2.5217.4596.3408.9354.658,1.4274.9516,2.2029,1.0849,4.3277,2.2902,6.3755,3.616,2.4912,2.1474,3.1735,4.7642,2.0459,7.8505-1.0686,1.9242-2.6701,3.1771-4.8054,3.7587-2.5283.5379-5.0652.5697-7.6126.0952-.8669-.1572-1.7081-.3951-2.5217-.7137-.1922-2.0645-.3978-4.1263-.6185-6.1852.2921-.0302.5776.0015.8564.0952.6975,1.6177,1.3959,3.2353,2.0935,4.853,1.9241,1.0448,3.9538,1.3144,6.0901.8088,2.9042-1.0034,3.9357-2.9858,3.0926-5.9473-.6185-1.126-1.4911-1.9983-2.6168-2.6168-2.1068-.9735-4.1051-2.1153-5.9949-3.4257-2.948-2.4468-3.5027-5.3491-1.6652-8.7069.9002-1.1523,2.0573-1.9293,3.4732-2.3313.6728-.1756,1.3389-.3183,1.9983-.4282Z" fill="#fff" fill-rule="evenodd" isolation="isolate" opacity=".961"/>
  <path d="M161.0383,15.0348c3.5351-.0433,7.0873.0043,10.6576.1427,1.9412.2127,3.6379.9581,5.0909,2.2362,1.4987,1.8232,1.848,3.8533,1.0467,6.0901-.7679,1.5293-1.9574,2.5918-3.5684,3.1878-.4377.1777-.8821.3363-1.3322.4758,2.0896,3.1797,4.1669,6.3674,6.2328,9.5633,1.0163.3385,2.0468.6398,3.0926.904.0913.323.1228.656.0952.9991-2.0621.0159-4.1241,0-6.1852-.0476-2.2647-3.5347-4.5333-7.0714-6.8037-10.61-.8964-.0937-1.8004-.1254-2.712-.0952v9.0399c1.0439.237,2.0906.4591,3.1402.6661v1.0467h-9.706c-.0276-.3431.0038-.6762.0952-.9991.825-.238,1.65-.4759,2.4741-.7137.1266-6.7245.1266-13.4488,0-20.1733-.0561.0199-.1037.0517-.1427.0952-.7736-.3484-1.5825-.6021-2.4265-.7613v-.9516c.3369.0298.6547-.002.9516-.0952ZM166.6526,16.4622c1.9821-.093,3.8539.2401,5.6143.9991,1.473.9162,2.1715,2.2484,2.0935,3.9966-.019,2.1625-1.0344,3.6534-3.045,4.4724-1.512.5065-3.066.7127-4.6627.6185v-10.0867Z" fill="#fff" fill-rule="evenodd" isolation="isolate" opacity=".963"/>
  <path d="M55.6042,15.0348c1.9236.0225,3.8426.0225,5.757,0,.0714.0596.1507.1071.2379.1427,4.298,5.6302,8.5958,11.2602,12.8938,16.8904.0476-5.1067.0635-10.2134.0476-15.3203-1.0265-.1832-2.0415-.4211-3.045-.7137-.0905-.2909-.1222-.5922-.0952-.904h7.3271v.9516c-.8517.2416-1.7081.4637-2.5692.6661-.0159,6.439,0,12.878.0476,19.3169.0311.9849.0787,1.9681.1427,2.9499-.4172.031-.8295-.0008-1.237-.0952-5.0833-6.5552-10.1425-13.121-15.1776-19.6975-.0476,5.8996-.0635,11.7994-.0476,17.6992,1.021.2076,2.0361.4455,3.045.7137.091.323.1227.656.0952.9991-2.4335.0312-4.8601-.0005-7.2795-.0952-.0746-.3102-.0587-.6116.0476-.904.7907-.2477,1.5836-.4856,2.3789-.7137.0636-6.493.127-12.9795.1903-19.4596-.838-.7679-1.8214-1.2278-2.9499-1.3798-.0442-.3808.0192-.7298.1903-1.0467Z" fill="#fff" fill-rule="evenodd" isolation="isolate" opacity=".963"/>
  <path d="M109.8438,15.0348h9.5157v1.0467c-.9849.2224-1.9679.4603-2.9499.7137,2.1534,5.8456,4.2944,11.6978,6.4231,17.5565,2.1962-5.8504,4.3373-11.7184,6.4231-17.6041-.9516-.222-1.9031-.4441-2.8547-.6661v-1.0467c2.3161-.0159,4.6313,0,6.9465.0476.0913.323.1228.656.0952.9991-.8431.1963-1.6672.4501-2.4741.7613-2.6806,7.3271-5.3602,14.6542-8.0408,21.9813-.3721.1233-.7689.1868-1.1895.1903-.4206-.0035-.8174-.067-1.1895-.1903-2.7567-7.3315-5.5324-14.6904-8.3262-22.0765-.0561.0199-.1037.0517-.1427.0952-.7089-.3481-1.454-.6019-2.2362-.7613v-1.0467Z" fill="#fff" fill-rule="evenodd" isolation="isolate" opacity=".965"/>
  <path d="M185.3985,15.13h18.8411c.1656,1.7439.3245,3.4886.4758,5.2336-.2921.0302-.5776-.0015-.8564-.0952-.5776-1.2679-1.1486-2.5049-1.7128-3.7111-1.807-.0952-3.615-.1268-5.424-.0952v20.4588c1.0781.2221,2.1572.4441,3.2353.6661v1.0467c-3.4257.0159-6.8513,0-10.277-.0476-.1266-.3172-.1266-.6344,0-.9516,1.0734-.2683,2.1515-.5062,3.2353-.7137v-20.4588c-1.808-.0159-3.616,0-5.424.0476-.6252,1.2343-1.2123,2.4871-1.7604,3.7587-.2912.0905-.5919.1222-.904.0952.158-1.7326.3483-3.4771.5709-5.2336Z" fill="#fff" fill-rule="evenodd" isolation="isolate" opacity=".948"/>
  <path d="M210.3297,15.0348c3.3476.1127,6.6943.1127,10.0391,0,.217.3044.2959.6533.2379,1.0467-1.0781.222-2.1572.4441-3.2353.6661v20.1733c1.0496.2194,2.0963.4573,3.1402.7137.0913.323.1228.656.0952.9991-3.4257.0159-6.8513,0-10.277-.0476-.1266-.3172-.1266-.6344,0-.9516,1.0734-.2683,2.1515-.5062,3.2353-.7137.0162-6.6928,0-13.3855-.0476-20.0782-1.08-.3057-2.1743-.5595-3.2829-.7613-.0247-.3586.0076-.7076.0952-1.0467Z" fill="#fff" fill-rule="evenodd" isolation="isolate" opacity=".961"/>
  <path d="M29.0554,19.0314c2.5975,1.0433,4.4373,2.8513,5.5191,5.424.1936.7378.384,1.4672.5709,2.1886.1685,1.4544.0417,2.8817-.3806,4.2821.0118.0578.0435.0894.0952.0952-.0317.1268-.0635.2538-.0952.3806-.0834-.0125-.1468.0192-.1903.0952-.1869.4048-.3455.8172-.4758,1.237-.8542,1.5683-2.0278,2.8529-3.5208,3.8539-1.5843,1.0618-3.2971,1.8389-5.1385,2.3313-.8593.1752-1.7157.3655-2.5692.5709-.1396-.0212-.2823-.0529-.4282-.0952-.0317.0635-.0635.1268-.0952.1903-.1207-.011-.2476-.0427-.3806-.0952-.0635.0635-.1268.1268-.1903.1903-.0705-.1086-.1499-.1086-.2379,0-.2363-.4564-.4901-.9004-.7613-1.3322.1131-.0884.24-.1201.3806-.0952-.0083.2948.0393.3266.1427.0952.0317.0635.0635.1268.0952.1903.1478-.3615.2746-.3615.3806,0,.1064-.2155.1857-.4376.2379-.6661.4127-.0846.7933-.2432,1.1419-.4758,2.7124-1.3726,4.6472-3.4661,5.8046-6.2804.6219-1.583.8282-3.2324.6185-4.9482-.0387-.3028-.0863-.6042-.1427-.904-.0175-.1309-.081-.2102-.1903-.2379-.6081-2.8367-2.1306-5.0253-4.5675-6.5658-.0592-.1746-.1861-.2857-.3806-.333,1.6303-.0411,3.2004.2919,4.7103.9991.038-.0217.0538-.0535.0476-.0952Z" fill="#fff" fill-rule="evenodd"/>
  <path d="M29.0554,19.0314c.0062.0417-.0096.0735-.0476.0952-1.5099-.7072-3.08-1.0403-4.7103-.9991.1945.0474.3214.1584.3806.333-.2891-.0516-.4318-.2102-.4282-.4758,1.681-.0199,3.2828.3291,4.8054,1.0467Z" fill="#fff" fill-rule="evenodd" isolation="isolate" opacity=".515"/>
  <path d="M34.5745,24.4554c.3028.624.4931,1.2901.5709,1.9983v.1903c-.187-.7214-.3773-1.4509-.5709-2.1886Z" fill="#fff" fill-rule="evenodd" isolation="isolate" opacity=".397"/>
  <path d="M29.2457,25.0263c.1093.0277.1728.107.1903.2379.0564.2998.104.6012.1427.904.2096,1.7158.0034,3.3651-.6185,4.9482.6257-2.0062.7208-4.0362.2855-6.0901Z" fill="#fff" fill-rule="evenodd" isolation="isolate" opacity=".251"/>
  <path d="M35.1454,26.4537c.3099,1.5376.2148,3.0602-.2855,4.5675-.0517-.0057-.0834-.0374-.0952-.0952.4223-1.4003.5492-2.8277.3806-4.2821v-.1903Z" fill="#fff" fill-rule="evenodd" isolation="isolate" opacity=".495"/>
  <path d="M.0324,28.3568c.1527.0749.2161.2017.1903.3806-.1117-.0965-.1751-.2233-.1903-.3806Z" fill="#fff" fill-rule="evenodd" isolation="isolate" opacity=".075"/>
  <path d="M34.7648,31.4018c-.1735.4739-.3956.918-.6661,1.3322.1303-.4198.2889-.8322.4758-1.237.0435-.0759.107-.1076.1903-.0952Z" fill="#fff" fill-rule="evenodd" isolation="isolate" opacity=".471"/>
  <path d="M23.1556,37.3967c-.3486.2326-.7292.3912-1.1419.4758-.0522.2285-.1315.4506-.2379.6661-.106-.3615-.2329-.3615-.3806,0-.0317-.0635-.0635-.1268-.0952-.1903-.1034.2314-.151.1996-.1427-.0952-.1406-.0249-.2675.0068-.3806.0952.2712.4318.525.8758.7613,1.3322.088-.1086.1674-.1086.2379,0,.0635-.0635.1268-.1268.1903-.1903.133.0524.26.0841.3806.0952.0317-.0635.0635-.1268.0952-.1903.1459.0422.2886.0739.4282.0952.8536-.2054,1.71-.3958,2.5692-.5709-.918.3247-1.8696.5626-2.8547.7137-2.9032.436-5.7897.4836-8.6593.1427.1545.0133.2655-.0501.333-.1903.0635.2538.1268.2538.1903,0,.0766.2285.1559.2126.2379-.0476-.0081-.2836-.0399-.569-.0952-.8564l.1427-.1427c.0063.2642.1172.4703.333.6185-.2538.1903-.2538.3806,0,.5709-.0317.0317-.0635.0635-.0952.0952.1374.0743.2643.0584.3806-.0476-.0185-.1494-.0185-.2921,0-.4282-.068-.198-.1632-.4041-.2855-.6185.0974-.1287.1926-.2555.2855-.3806,2.6909.3694,5.2918.0521,7.8029-.9516Z" fill="#fff" fill-rule="evenodd" isolation="isolate" opacity=".946"/>
  <path d="M99.7571,38.5386q.1266.0635,0,0Z" fill="#fff" fill-rule="evenodd" isolation="isolate" opacity=".075"/>
  <path d="M12.498,37.6822c.9291.3115,1.8807.5335,2.8547.6661-.0929.1251-.188.252-.2855.3806.1223.2144.2174.4205.2855.6185-.0185.1361-.0185.2788,0,.4282-.1164.106-.2432.1219-.3806.0476.0317-.0317.0635-.0635.0952-.0952-.2538-.1903-.2538-.3806,0-.5709-.2158-.1483-.3268-.3544-.333-.6185l-.1427.1427c.0553.2874.0871.5728.0952.8564-.082.2602-.1613.2761-.2379.0476-.0635.2538-.1268.2538-.1903,0-.0676.1402-.1785.2036-.333.1903-.4996.0188-.9754-.0446-1.4274-.1903.1872.0227.3617-.0089.5234-.0952.1395.1737.3139.2212.5234.1427.0245-.2412.0879-.4633.1903-.6661-.1802-.1048-.2437-.2316-.1903-.3806.2643-.2068.2484-.2544-.0476-.1427-.2062-.1427-.1903-.2538.0476-.333-.3034-.0718-.6047-.1512-.904-.2379-.098-.032-.1456-.0954-.1427-.1903Z" fill="#fff" fill-rule="evenodd"/>
</svg>